# xmcd CD database file
#
# Track frame offsets:
#	150
#	13481
#	42881
#	53997
#	81588
#	99170
#	116248
#	133245
#	138813
#	153063
#	167378
#	175652
#	190072
#	205541
#	213760
#	223660
#	233631
#	246582
#	257470
#	271495
#	287418
#	302912
#
# Disc length: 4307 seconds
#
# Revision: 1
# Processed by: cddbd v1.5.2PL0 Copyright (c) Steve Scherf et al.
# Submitted via: CDex 1.70beta3
#
DISCID=3410d116
DTITLE=KONAMI - METAL GEAR SOLID3 SNAKE EATER Original Soundtrack [Disc 1]
DYEAR=2004
DGENRE=Game
TTITLE0=日比野則彦 and Cynthia Harrell - Snake Eater (Cynthia Harrell)
TTITLE1=TAPPY and Harry Gregson-Williams - 'METAL GEAR SOLID' Main Theme (METAL GEAR SOLID 3 version)
TTITLE2=Harry Gregson-Williams - CQC
TTITLE3=Harry Gregson-Williams - Virtuous Mission
TTITLE4=日比野則彦 - On The Ground~Battle In The Jungle
TTITLE5=Harry Gregson-Williams - KGBVSGRU
TTITLE6=Harry Gregson-Williams - Shagohod
TTITLE7=日比野則彦 - Operation Snake Eater
TTITLE8=Harry Gregson-Williams - Mission Briefing
TTITLE9=Harry Gregson-Williams - Across The Border~Snake Meets The Boss
TTITLE10=戸田信子 and 日比野則彦 - Eva's Unveiling
TTITLE11=Harry Gregson-Williams and 日比野則彦 - Ocelot Youth~Confrontation
TTITLE12=Harry Gregson-Williams - The Cobras In The Jungle
TTITLE13=日比野則彦 - The Pain
TTITLE14=日比野則彦 - The Fear
TTITLE15=Harry Gregson-Williams - Fortress Sneaking
TTITLE16=Harry Gregson-Williams - Underground Tunnel
TTITLE17=日比野則彦 - The Fury
TTITLE18=66 Boys - Surfing Guitar (66Boys)
TTITLE19=Starry.K - Sailor (Starry.K)
TTITLE20=66 Boys - Salty Catfish (66Boys)
TTITLE21=Starry.K - Old Metal Gear (Starry.K)
EXTD=YEAR: 2004
EXTT0=
EXTT1=
EXTT2=
EXTT3=
EXTT4=
EXTT5=
EXTT6=
EXTT7=
EXTT8=
EXTT9=
EXTT10=
EXTT11=
EXTT12=
EXTT13=
EXTT14=
EXTT15=
EXTT16=
EXTT17=
EXTT18=
EXTT19=
EXTT20=
EXTT21=
PLAYORDER=
